<svg width="17" height="8" viewBox="0 0 17 8" fill="none" xmlns="http://www.w3.org/2000/svg">
<g id="Prio media" clip-path="url(#clip0_12_1591)">
<g id="Capa 2">
<g id="Capa 1">
<path id="Vector" d="M16.0685 7.16664H0.931507C0.684456 7.16664 0.447523 7.06779 0.272832 6.89183C0.0981406 6.71587 0 6.47722 0 6.22837C0 5.97953 0.0981406 5.74087 0.272832 5.56491C0.447523 5.38895 0.684456 5.2901 0.931507 5.2901H16.0685C16.3155 5.2901 16.5525 5.38895 16.7272 5.56491C16.9019 5.74087 17 5.97953 17 6.22837C17 6.47722 16.9019 6.71587 16.7272 6.89183C16.5525 7.06779 16.3155 7.16664 16.0685 7.16664Z" fill="#FF7A00"/>
<path id="Vector_2" d="M16.0685 2.70986H0.931507C0.684456 2.70986 0.447523 2.611 0.272832 2.43504C0.0981406 2.25908 0 2.02043 0 1.77158C0 1.52274 0.0981406 1.28409 0.272832 1.10813C0.447523 0.932166 0.684456 0.833313 0.931507 0.833313H16.0685C16.3155 0.833313 16.5525 0.932166 16.7272 1.10813C16.9019 1.28409 17 1.52274 17 1.77158C17 2.02043 16.9019 2.25908 16.7272 2.43504C16.5525 2.611 16.3155 2.70986 16.0685 2.70986Z" fill="#FF7A00"/>
</g>
</g>
</g>
<defs>
<clipPath id="clip0_12_1591">
<rect width="17" height="6.33333" fill="white" transform="translate(0 0.833313)"/>
</clipPath>
</defs>
</svg>
